# xmcd CD database file
#
# Track frame offsets:
#	150
#	12780
#	34490
#	55007
#	71907
#	88000
#	99220
#	110210
#	130375
#	147295
#	164050
#	177387
#	195337
#	213830
#	236595
#	250622
#	275490
#	289227
#	305110
#	335980
#
# Disc length: 4766 seconds
#
# Revision: 3
# Processed by: cddbd v1.5PL3 Copyright (c) Steve Scherf et al.
# Submitted via: CDex 1.51
#
DISCID=37129c14
DTITLE=Freddie King - King of the Blues (Vol. 2)
DYEAR=1995
DGENRE=Blues
TTITLE0=Woman Across The River
TTITLE1=Hoochie Coochie Man
TTITLE2=Danger Zone
TTITLE3=Boogie Man
TTITLE4=Leave My Woman Alone
TTITLE5=Just A Little Bit
TTITLE6=Yonder Wall
TTITLE7=Help Me Through The Day
TTITLE8=I'm Ready
TTITLE9=Trouble In Mind
TTITLE10=You Don't Have To Go
TTITLE11=Please Send Me Someone To Love
TTITLE12=Gimme Some Lovin'
TTITLE13=Love Her With A Feeling
TTITLE14=Boogie Fuck
TTITLE15=It Hurts Me Too
TTITLE16=Something You Got
TTITLE17=Ain't No Big Deal On You
TTITLE18=I Just Want To Make Love To You
TTITLE19=Hide Away
EXTD=YEAR: 1995
EXTT0=
EXTT1=
EXTT2=
EXTT3=
EXTT4=
EXTT5=
EXTT6=
EXTT7=
EXTT8=
EXTT9=
EXTT10=
EXTT11=
EXTT12=
EXTT13=
EXTT14=
EXTT15=
EXTT16=
EXTT17=
EXTT18=
EXTT19=
PLAYORDER=
